<svg width="324" height="324" viewBox="0 0 324 324" fill="none" xmlns="http://www.w3.org/2000/svg">
<path fill-rule="evenodd" clip-rule="evenodd" d="M160.714 137.967C147.847 137.967 137.416 148.398 137.416 161.264C137.416 174.131 147.847 184.562 160.714 184.562C173.58 184.562 184.011 174.131 184.011 161.264C184.011 148.398 173.58 137.967 160.714 137.967ZM120.775 161.264C120.775 139.207 138.656 121.326 160.714 121.326C182.771 121.326 200.652 139.207 200.652 161.264C200.652 183.322 182.771 201.203 160.714 201.203C138.656 201.203 120.775 183.322 120.775 161.264Z" fill="white"/>
<path fill-rule="evenodd" clip-rule="evenodd" d="M160.721 98.5827C126.103 98.5827 98.0397 126.646 98.0397 161.264C98.0397 195.881 126.103 223.944 160.721 223.944C195.338 223.944 223.401 195.881 223.401 161.264C223.401 126.646 195.338 98.5827 160.721 98.5827ZM64.7578 161.264C64.7578 108.265 107.722 65.3008 160.721 65.3008C213.719 65.3008 256.683 108.265 256.683 161.264C256.683 214.262 213.719 257.226 160.721 257.226C107.722 257.226 64.7578 214.262 64.7578 161.264Z" fill="white"/>
<path fill-rule="evenodd" clip-rule="evenodd" d="M161.417 44.3758C96.777 44.3758 44.3758 96.777 44.3758 161.417C44.3758 226.057 96.777 278.458 161.417 278.458C226.057 278.458 278.458 226.057 278.458 161.417C278.458 96.777 226.057 44.3758 161.417 44.3758ZM0 161.417C0 72.2689 72.2689 0 161.417 0C250.565 0 322.834 72.2689 322.834 161.417C322.834 250.565 250.565 322.834 161.417 322.834C72.2689 322.834 0 250.565 0 161.417Z" fill="white"/>
</svg>
