<svg width="718" height="919" viewBox="0 0 718 919" fill="none" xmlns="http://www.w3.org/2000/svg">
<path d="M140.5 1153C458.34 1153 716 895.34 716 577.5C716 259.66 458.34 2 140.5 2C-177.34 2 -435 259.66 -435 577.5C-435 895.34 -177.34 1153 140.5 1153Z" stroke="#FF2F61" stroke-opacity="0.3" stroke-width="3" stroke-miterlimit="10"/>
<path d="M140.5 1095.48C426.571 1095.48 658.477 863.571 658.477 577.5C658.477 291.429 426.571 59.5234 140.5 59.5234C-145.571 59.5234 -377.477 291.429 -377.477 577.5C-377.477 863.571 -145.571 1095.48 140.5 1095.48Z" stroke="#FF2F61" stroke-opacity="0.3" stroke-width="3" stroke-miterlimit="10"/>
<path d="M140.5 1038.01C394.831 1038.01 601.007 831.831 601.007 577.5C601.007 323.169 394.831 116.993 140.5 116.993C-113.831 116.993 -320.007 323.169 -320.007 577.5C-320.007 831.831 -113.831 1038.01 140.5 1038.01Z" stroke="#FF2F61" stroke-opacity="0.3" stroke-width="3" stroke-miterlimit="10"/>
<path d="M140.5 980.603C363.128 980.603 543.603 800.128 543.603 577.5C543.603 354.872 363.128 174.397 140.5 174.397C-82.1277 174.397 -262.603 354.872 -262.603 577.5C-262.603 800.128 -82.1277 980.603 140.5 980.603Z" stroke="#FF2F61" stroke-opacity="0.3" stroke-width="3" stroke-miterlimit="10"/>
<path d="M140.5 923.32C331.491 923.32 486.32 768.491 486.32 577.5C486.32 386.509 331.491 231.68 140.5 231.68C-50.4908 231.68 -205.32 386.509 -205.32 577.5C-205.32 768.491 -50.4908 923.32 140.5 923.32Z" stroke="#FF2F61" stroke-opacity="0.3" stroke-width="3" stroke-miterlimit="10"/>
<path d="M140.5 866.209C299.95 866.209 429.209 736.95 429.209 577.5C429.209 418.05 299.95 288.791 140.5 288.791C-18.9496 288.791 -148.209 418.05 -148.209 577.5C-148.209 736.95 -18.9496 866.209 140.5 866.209Z" stroke="#FF2F61" stroke-opacity="0.3" stroke-width="3" stroke-miterlimit="10"/>
<path d="M140.5 809.419C268.585 809.419 372.419 705.585 372.419 577.5C372.419 449.415 268.585 345.582 140.5 345.582C12.415 345.582 -91.4185 449.415 -91.4185 577.5C-91.4185 705.585 12.415 809.419 140.5 809.419Z" stroke="#FF2F61" stroke-opacity="0.3" stroke-width="3" stroke-miterlimit="10"/>
<path d="M140.5 753.241C237.559 753.241 316.241 674.559 316.241 577.5C316.241 480.441 237.559 401.759 140.5 401.759C43.4411 401.759 -35.2407 480.441 -35.2407 577.5C-35.2407 674.559 43.4411 753.241 140.5 753.241Z" stroke="#FF2F61" stroke-opacity="0.3" stroke-width="3" stroke-miterlimit="10"/>
<path d="M140.5 698.568C207.364 698.568 261.568 644.364 261.568 577.5C261.568 510.636 207.364 456.432 140.5 456.432C73.6359 456.432 19.4319 510.636 19.4319 577.5C19.4319 644.364 73.6359 698.568 140.5 698.568Z" stroke="#FF2F61" stroke-opacity="0.3" stroke-width="3" stroke-miterlimit="10"/>
<path d="M140.5 648.865C179.914 648.865 211.865 616.914 211.865 577.5C211.865 538.086 179.914 506.135 140.5 506.135C101.086 506.135 69.1353 538.086 69.1353 577.5C69.1353 616.914 101.086 648.865 140.5 648.865Z" stroke="#FF2F61" stroke-opacity="0.3" stroke-width="3" stroke-miterlimit="10"/>
</svg>
