<svg height="60" width="60" xmlns="http://www.w3.org/2000/svg"><g fill="none" fill-rule="evenodd"><circle cx="30" cy="30" fill="#2775ca" r="30"/><g fill-rule="nonzero"><circle cx="30" cy="30" fill="#2775ca" r="30"/><g fill="#fff"><path d="M24.5 50.75c0 .75-.5 1-1.25 1-9.25-3-15.75-11.5-15.75-21.5s6.5-18.5 15.75-21.5c.75-.25 1.25.25 1.25 1v1.75c0 .5-.25 1-.75 1.25-7.25 2.75-12.25 9.5-12.25 17.5s5.25 15 12.25 17.5c.5.25.75.75.75 1.25z"/><path d="M32 44.5c0 .5-.5 1-1 1h-2c-.5 0-1-.5-1-1v-3c-4-.5-6-2.75-6.75-6 0-.5.25-1 .75-1h2.25c.5 0 .75.25 1 .75.5 1.75 1.5 3.25 4.75 3.25 2.5 0 4.25-1.25 4.25-3.25s-1-2.75-4.5-3.25C24.5 31.25 22 29.75 22 25.5c0-3.25 2.5-5.75 6-6.25v-3c0-.5.5-1 1-1h2c.5 0 1 .5 1 1v3c3 .5 5 2.25 5.5 5 0 .5-.25 1-.75 1h-2c-.5 0-.75-.25-1-.75-.5-1.75-1.75-2.5-4-2.5-2.5 0-3.75 1.25-3.75 3s.75 2.75 4.5 3.25c5.25.75 7.75 2.25 7.75 6.5 0 3.25-2.5 6-6.25 6.75z"/><path d="M36.75 51.75c-.75.25-1.25-.25-1.25-1V49c0-.5.25-1 .75-1.25C43.5 45 48.5 38.25 48.5 30.25s-5.25-15-12.25-17.5c-.5-.25-.75-.75-.75-1.25V9.75c0-.75.5-1 1.25-1 9 3 15.75 11.5 15.75 21.5s-6.5 18.5-15.75 21.5z"/></g></g></g></svg>