<svg width="137" height="17" viewBox="0 0 137 17" fill="none" xmlns="http://www.w3.org/2000/svg">
<path d="M18.0342 14.5V3.3H24.2422C25.3195 3.3 26.2795 3.45467 27.1222 3.764C27.9648 4.06267 28.6795 4.47333 29.2662 4.996C29.8528 5.51867 30.3008 6.116 30.6102 6.788C30.9195 7.46 31.0742 8.164 31.0742 8.9C31.0742 9.64667 30.9195 10.356 30.6102 11.028C30.3008 11.7 29.8475 12.2973 29.2502 12.82C28.6635 13.3427 27.9488 13.7533 27.1062 14.052C26.2635 14.3507 25.3088 14.5 24.2422 14.5H18.0342ZM21.4902 12.372L20.8982 11.556H24.1622C24.7382 11.556 25.2342 11.476 25.6502 11.316C26.0768 11.156 26.4235 10.948 26.6902 10.692C26.9675 10.4253 27.1702 10.1373 27.2982 9.828C27.4368 9.51867 27.5062 9.20933 27.5062 8.9C27.5062 8.59067 27.4368 8.28133 27.2982 7.972C27.1702 7.66267 26.9675 7.38 26.6902 7.124C26.4235 6.85733 26.0768 6.644 25.6502 6.484C25.2342 6.324 24.7382 6.244 24.1622 6.244H20.8502L21.4902 5.46V12.372ZM35.6123 14.5V3.3H42.0763C43.1429 3.3 44.0176 3.444 44.7003 3.732C45.3936 4.00933 45.9056 4.42533 46.2363 4.98C46.5776 5.524 46.7483 6.19067 46.7483 6.98C46.7483 7.73733 46.5563 8.40933 46.1723 8.996C45.7883 9.572 45.2603 10.0253 44.5883 10.356C43.9269 10.6867 43.1696 10.852 42.3163 10.852H38.8443V14.5H35.6123ZM43.5003 14.5L39.6923 9.444L43.2923 9.044L47.4203 14.5H43.5003ZM38.8443 8.452H41.8843C42.1403 8.452 42.3749 8.40933 42.5883 8.324C42.8016 8.23867 42.9723 8.10533 43.1003 7.924C43.2389 7.74267 43.3083 7.51333 43.3083 7.236C43.3083 6.948 43.2389 6.71867 43.1003 6.548C42.9723 6.36667 42.7963 6.23333 42.5723 6.148C42.3483 6.06267 42.1029 6.02 41.8363 6.02H38.8443V8.452ZM58.455 14.66C57.367 14.66 56.375 14.516 55.479 14.228C54.583 13.9293 53.8097 13.5187 53.159 12.996C52.5084 12.4627 52.007 11.844 51.655 11.14C51.303 10.4253 51.127 9.652 51.127 8.82C51.127 7.988 51.303 7.22 51.655 6.516C52.0177 5.80133 52.5244 5.18267 53.175 4.66C53.8257 4.12667 54.5937 3.716 55.479 3.428C56.375 3.12933 57.3617 2.98 58.439 2.98C59.5164 2.98 60.4977 3.12933 61.383 3.428C62.279 3.716 63.0524 4.12667 63.703 4.66C64.3537 5.18267 64.855 5.80133 65.207 6.516C65.5697 7.22 65.751 7.98267 65.751 8.804C65.751 9.64667 65.5697 10.4253 65.207 11.14C64.855 11.844 64.3537 12.4627 63.703 12.996C63.0524 13.5187 62.279 13.9293 61.383 14.228C60.4977 14.516 59.5217 14.66 58.455 14.66ZM58.439 11.46C58.9937 11.46 59.5004 11.396 59.959 11.268C60.4284 11.1293 60.8284 10.9427 61.159 10.708C61.5004 10.4627 61.7617 10.18 61.943 9.86C62.135 9.54 62.231 9.19333 62.231 8.82C62.231 8.44667 62.135 8.1 61.943 7.78C61.7617 7.46 61.5004 7.18267 61.159 6.948C60.8284 6.70267 60.4284 6.516 59.959 6.388C59.5004 6.24933 58.9937 6.18 58.439 6.18C57.8844 6.18 57.3724 6.24933 56.903 6.388C56.4444 6.516 56.0444 6.70267 55.703 6.948C55.3617 7.18267 55.1004 7.46 54.919 7.78C54.7377 8.1 54.647 8.44667 54.647 8.82C54.647 9.19333 54.7377 9.54 54.919 9.86C55.1004 10.18 55.3617 10.4627 55.703 10.708C56.0444 10.9427 56.4444 11.1293 56.903 11.268C57.3724 11.396 57.8844 11.46 58.439 11.46ZM70.2998 14.5V3.3H77.3238C78.1451 3.3 78.8758 3.46533 79.5158 3.796C80.1664 4.12667 80.6784 4.58 81.0518 5.156C81.4358 5.732 81.6278 6.39333 81.6278 7.14C81.6278 7.95067 81.4251 8.676 81.0198 9.316C80.6144 9.94533 80.0598 10.4413 79.3558 10.804C78.6624 11.156 77.8784 11.332 77.0038 11.332H73.7558V14.5H70.2998ZM73.6918 8.388H76.2358C76.5664 8.388 76.8598 8.34533 77.1158 8.26C77.3824 8.164 77.5958 8.02533 77.7558 7.844C77.9158 7.66267 77.9958 7.44933 77.9958 7.204C77.9958 6.98 77.9158 6.79867 77.7558 6.66C77.5958 6.52133 77.3824 6.42 77.1158 6.356C76.8598 6.28133 76.5664 6.244 76.2358 6.244H73.6918V8.388ZM86.795 14.5V11.588H89.883V6.212H86.795V3.3H96.427V6.212H93.339V11.588H96.427V14.5H86.795ZM108.224 14.596C106.997 14.596 105.925 14.3613 105.008 13.892C104.09 13.4227 103.376 12.7773 102.864 11.956C102.362 11.1347 102.112 10.196 102.112 9.14V3.3H105.6V9.076C105.6 9.588 105.712 10.036 105.936 10.42C106.16 10.804 106.469 11.1027 106.864 11.316C107.258 11.5293 107.712 11.636 108.224 11.636C108.757 11.636 109.226 11.5293 109.632 11.316C110.037 11.1027 110.352 10.804 110.576 10.42C110.81 10.036 110.928 9.588 110.928 9.076V3.3H114.336V9.14C114.336 10.196 114.08 11.1347 113.568 11.956C113.066 12.7773 112.357 13.4227 111.44 13.892C110.533 14.3613 109.461 14.596 108.224 14.596ZM119.55 14.5V3.3H122.526L127.63 9.62H125.422L130.526 3.3H133.502V14.5H130.174V11.668C130.174 10.7827 130.195 9.95067 130.238 9.172C130.28 8.39333 130.366 7.59867 130.494 6.788L130.83 7.86L127.054 12.148H125.998L122.158 7.796L122.558 6.788C122.686 7.59867 122.771 8.39333 122.814 9.172C122.856 9.95067 122.878 10.7827 122.878 11.668V14.5H119.55Z" fill="black"/>
<path fill-rule="evenodd" clip-rule="evenodd" d="M7.5 16.5C11.6421 16.5 15 13.1421 15 9C15 4.85786 11.6421 1.5 7.5 1.5C3.35786 1.5 0 4.85786 0 9C0 13.1421 3.35786 16.5 7.5 16.5ZM7.5 14.4167C10.4915 14.4167 12.9167 11.9915 12.9167 9C12.9167 6.00846 10.4915 3.58333 7.5 3.58333C4.50846 3.58333 2.08333 6.00846 2.08333 9C2.08333 11.9915 4.50846 14.4167 7.5 14.4167Z" fill="black"/>
<path fill-rule="evenodd" clip-rule="evenodd" d="M7.49976 13.3594C9.916 13.3594 11.8748 11.4006 11.8748 8.98438C11.8748 6.56813 9.916 4.60938 7.49976 4.60938C5.08351 4.60938 3.12476 6.56813 3.12476 8.98438C3.12476 11.4006 5.08351 13.3594 7.49976 13.3594ZM7.49976 12.3177C9.34071 12.3177 10.8331 10.8253 10.8331 8.98438C10.8331 7.14343 9.34071 5.65104 7.49976 5.65104C5.65881 5.65104 4.16642 7.14343 4.16642 8.98438C4.16642 10.8253 5.65881 12.3177 7.49976 12.3177Z" fill="black"/>
<path fill-rule="evenodd" clip-rule="evenodd" d="M7.49919 11.2943C8.76484 11.2943 9.79085 10.2683 9.79085 9.0026C9.79085 7.73695 8.76484 6.71094 7.49919 6.71094C6.23353 6.71094 5.20752 7.73695 5.20752 9.0026C5.20752 10.2683 6.23353 11.2943 7.49919 11.2943ZM7.49919 10.7734C8.47719 10.7734 9.27002 9.98061 9.27002 9.0026C9.27002 8.0246 8.47719 7.23177 7.49919 7.23177C6.52118 7.23177 5.72835 8.0246 5.72835 9.0026C5.72835 9.98061 6.52118 10.7734 7.49919 10.7734Z" fill="black"/>
</svg>
