<svg width="481" height="71" viewBox="0 0 481 71" fill="none" xmlns="http://www.w3.org/2000/svg">
<path d="M64.6372 56.7691V17.3852H86.4672C90.2555 17.3852 93.6313 17.9291 96.5945 19.0168C99.5576 20.0671 102.071 21.5111 104.134 23.3491C106.197 25.187 107.772 27.2874 108.86 29.6505C109.947 32.0135 110.491 34.4891 110.491 37.0772C110.491 39.7027 109.947 42.1971 108.86 44.5601C107.772 46.9231 106.178 49.0236 104.077 50.8615C102.014 52.6994 99.5014 54.1435 96.5382 55.1937C93.575 56.244 90.218 56.7691 86.4672 56.7691H64.6372ZM76.79 49.2862L74.7083 46.4168H86.1859C88.2113 46.4168 89.9555 46.1355 91.4183 45.5728C92.9186 45.0102 94.1377 44.2788 95.0754 43.3786C96.0506 42.4409 96.7632 41.4281 97.2134 40.3404C97.701 39.2526 97.9448 38.1649 97.9448 37.0772C97.9448 35.9894 97.701 34.9017 97.2134 33.8139C96.7632 32.7262 96.0506 31.7322 95.0754 30.832C94.1377 29.8943 92.9186 29.1441 91.4183 28.5815C89.9555 28.0189 88.2113 27.7375 86.1859 27.7375H74.5395L76.79 24.9807V49.2862ZM126.449 56.7691V17.3852H149.179C152.93 17.3852 156.006 17.8916 158.407 18.9043C160.845 19.8795 162.645 21.3423 163.808 23.2928C165.008 25.2057 165.608 27.55 165.608 30.3256C165.608 32.9887 164.933 35.3518 163.583 37.4147C162.232 39.4402 160.376 41.0343 158.013 42.1971C155.687 43.3598 153.024 43.9412 150.023 43.9412H137.814V56.7691H126.449ZM154.187 56.7691L140.796 38.9901L153.455 37.5835L167.971 56.7691H154.187ZM137.814 35.5018H148.504C149.404 35.5018 150.23 35.3518 150.98 35.0517C151.73 34.7516 152.33 34.2828 152.78 33.6451C153.268 33.0075 153.512 32.2011 153.512 31.2258C153.512 30.2131 153.268 29.4067 152.78 28.8065C152.33 28.1689 151.711 27.7 150.924 27.4C150.136 27.0999 149.273 26.9499 148.335 26.9499H137.814V35.5018ZM206.774 57.3317C202.948 57.3317 199.46 56.8254 196.309 55.8126C193.158 54.7624 190.439 53.3183 188.151 51.4804C185.863 49.605 184.1 47.4295 182.862 44.9539C181.625 42.4409 181.006 39.7215 181.006 36.7958C181.006 33.8702 181.625 31.1696 182.862 28.694C184.138 26.1809 185.919 24.0055 188.207 22.1675C190.495 20.2921 193.196 18.848 196.309 17.8353C199.46 16.7851 202.929 16.26 206.718 16.26C210.506 16.26 213.957 16.7851 217.07 17.8353C220.221 18.848 222.94 20.2921 225.228 22.1675C227.516 24.0055 229.279 26.1809 230.517 28.694C231.792 31.1696 232.43 33.8514 232.43 36.7396C232.43 39.7027 231.792 42.4409 230.517 44.9539C229.279 47.4295 227.516 49.605 225.228 51.4804C222.94 53.3183 220.221 54.7624 217.07 55.8126C213.957 56.8254 210.525 57.3317 206.774 57.3317ZM206.718 46.0792C208.668 46.0792 210.45 45.8541 212.063 45.404C213.713 44.9164 215.12 44.26 216.282 43.4348C217.483 42.5721 218.402 41.5782 219.039 40.4529C219.714 39.3277 220.052 38.1086 220.052 36.7958C220.052 35.483 219.714 34.264 219.039 33.1388C218.402 32.0135 217.483 31.0383 216.282 30.2131C215.12 29.3504 213.713 28.694 212.063 28.2439C210.45 27.7563 208.668 27.5125 206.718 27.5125C204.767 27.5125 202.967 27.7563 201.317 28.2439C199.704 28.694 198.297 29.3504 197.097 30.2131C195.897 31.0383 194.978 32.0135 194.34 33.1388C193.702 34.264 193.383 35.483 193.383 36.7958C193.383 38.1086 193.702 39.3277 194.34 40.4529C194.978 41.5782 195.897 42.5721 197.097 43.4348C198.297 44.26 199.704 44.9164 201.317 45.404C202.967 45.8541 204.767 46.0792 206.718 46.0792ZM248.425 56.7691V17.3852H273.124C276.013 17.3852 278.582 17.9666 280.832 19.1293C283.12 20.2921 284.921 21.8862 286.234 23.9117C287.584 25.9371 288.259 28.2627 288.259 30.8883C288.259 33.7389 287.546 36.2895 286.121 38.54C284.696 40.753 282.745 42.4971 280.27 43.7724C277.832 45.0102 275.075 45.6291 271.999 45.6291H260.578V56.7691H248.425ZM260.353 35.2767H269.299C270.461 35.2767 271.493 35.1267 272.393 34.8266C273.331 34.4891 274.081 34.0015 274.644 33.3638C275.206 32.7262 275.487 31.976 275.487 31.1133C275.487 30.3256 275.206 29.688 274.644 29.2004C274.081 28.7128 273.331 28.3564 272.393 28.1314C271.493 27.8688 270.461 27.7375 269.299 27.7375H260.353V35.2767ZM306.429 56.7691V46.5293H317.288V27.625H306.429V17.3852H340.299V27.625H329.441V46.5293H340.299V56.7691H306.429ZM381.781 57.1067C377.467 57.1067 373.698 56.2815 370.472 54.6311C367.246 52.9807 364.733 50.7115 362.933 47.8233C361.17 44.9352 360.289 41.6344 360.289 37.9211V17.3852H372.554V37.696C372.554 39.4965 372.948 41.0718 373.735 42.4221C374.523 43.7724 375.611 44.8227 376.999 45.5728C378.386 46.323 379.981 46.6981 381.781 46.6981C383.656 46.6981 385.307 46.323 386.732 45.5728C388.157 44.8227 389.264 43.7724 390.052 42.4221C390.877 41.0718 391.289 39.4965 391.289 37.696V17.3852H403.273V37.9211C403.273 41.6344 402.373 44.9352 400.573 47.8233C398.81 50.7115 396.315 52.9807 393.09 54.6311C389.902 56.2815 386.132 57.1067 381.781 57.1067ZM421.609 56.7691V17.3852H432.074L450.021 39.609H442.257L460.205 17.3852H470.67V56.7691H458.967V46.8106C458.967 43.6974 459.042 40.7717 459.192 38.0336C459.342 35.2955 459.642 32.5011 460.092 29.6505L461.274 33.4201L447.996 48.4985H444.283L430.78 33.195L432.186 29.6505C432.636 32.5011 432.936 35.2955 433.086 38.0336C433.236 40.7717 433.311 43.6974 433.311 46.8106V56.7691H421.609Z" fill="black"/>
<path fill-rule="evenodd" clip-rule="evenodd" d="M27.7058 63.9125C43.0073 63.9125 55.4116 51.5082 55.4116 36.2068C55.4116 20.9053 43.0073 8.50098 27.7058 8.50098C12.4043 8.50098 0 20.9053 0 36.2068C0 51.5082 12.4043 63.9125 27.7058 63.9125ZM27.7058 56.2165C38.7568 56.2165 47.7155 47.2578 47.7155 36.2068C47.7155 25.1557 38.7568 16.197 27.7058 16.197C16.6547 16.197 7.69605 25.1557 7.69605 36.2068C7.69605 47.2578 16.6547 56.2165 27.7058 56.2165Z" fill="black"/>
<path fill-rule="evenodd" clip-rule="evenodd" d="M27.7047 52.3685C36.6305 52.3685 43.8664 45.1326 43.8664 36.2067C43.8664 27.2809 36.6305 20.045 27.7047 20.045C18.7788 20.045 11.543 27.2809 11.543 36.2067C11.543 45.1326 18.7788 52.3685 27.7047 52.3685ZM27.7047 48.5204C34.5053 48.5204 40.0184 43.0074 40.0184 36.2067C40.0184 29.4061 34.5053 23.8931 27.7047 23.8931C20.904 23.8931 15.391 29.4061 15.391 36.2067C15.391 43.0074 20.904 48.5204 27.7047 48.5204Z" fill="black"/>
<path fill-rule="evenodd" clip-rule="evenodd" d="M27.7039 44.6724C32.3794 44.6724 36.1696 40.8822 36.1696 36.2067C36.1696 31.5313 32.3794 27.7411 27.7039 27.7411C23.0285 27.7411 19.2383 31.5313 19.2383 36.2067C19.2383 40.8822 23.0285 44.6724 27.7039 44.6724ZM27.7039 42.7484C31.3168 42.7484 34.2456 39.8196 34.2456 36.2067C34.2456 32.5939 31.3168 29.6651 27.7039 29.6651C24.0911 29.6651 21.1623 32.5939 21.1623 36.2067C21.1623 39.8196 24.0911 42.7484 27.7039 42.7484Z" fill="black"/>
</svg>
